<svg xmlns="http://www.w3.org/2000/svg" xmlns:xlink="http://www.w3.org/1999/xlink" version="1.1" x="0px" y="0px" viewBox="0 0 100 125" enable-background="new 0 0 100 100" xml:space="preserve"><g><path d="M24.364,43.872c4.527,0,8.192-3.668,8.192-8.188c0-4.524-3.665-8.189-8.192-8.189c-4.521,0-8.186,3.665-8.186,8.189   C16.179,40.204,19.844,43.872,24.364,43.872z"/><path d="M20.075,52.985h17.218c1.98,0,3.633-1.406,4.018-3.277c0.057-0.275,0.091-0.563,0.091-0.856V37.308   c0-2.265-1.837-4.102-4.103-4.102c-2.265,0-4.102,1.837-4.102,4.102v7.477H20.075c-2.266,0-4.1,1.837-4.1,4.103   C15.976,51.151,17.81,52.985,20.075,52.985z"/><path d="M84.276,52.329c0-10.348-8.385-19.189-18.732-19.189h-22.48v19.846h41.194C84.271,52.767,84.276,52.551,84.276,52.329z"/><path d="M90.25,32.834c-2.6,0-4.705,2.108-4.705,4.708v17.874H14.454V25.798c0-2.603-2.105-4.708-4.708-4.708   c-2.6,0-4.708,2.105-4.708,4.708V78.91h9.416V65.947h71.091V78.91h9.417V37.542C94.962,34.942,92.85,32.834,90.25,32.834z"/></g><text x="0" y="115" fill="#000000" font-size="5px" font-weight="bold" font-family="'Helvetica Neue', Helvetica, Arial-Unicode, Arial, Sans-serif">Created by lipi</text><text x="0" y="120" fill="#000000" font-size="5px" font-weight="bold" font-family="'Helvetica Neue', Helvetica, Arial-Unicode, Arial, Sans-serif">from the Noun Project</text></svg>